<svg width="600" height="400" viewBox="0 0 600 400" fill="none" xmlns="http://www.w3.org/2000/svg">
  <!-- Background -->
  <rect width="600" height="400" fill="#F9FAFB"/>
  
  <!-- Decorative elements -->
  <path d="M0 200C100 150 200 250 300 200C400 150 500 250 600 200" stroke="#6366F1" stroke-width="2" stroke-dasharray="4 4" opacity="0.3"/>
  <path d="M0 220C100 170 200 270 300 220C400 170 500 270 600 220" stroke="#6366F1" stroke-width="2" stroke-dasharray="4 4" opacity="0.2"/>
  <path d="M0 240C100 190 200 290 300 240C400 190 500 290 600 240" stroke="#6366F1" stroke-width="2" stroke-dasharray="4 4" opacity="0.1"/>
  
  <!-- Central brain icon -->
  <circle cx="300" cy="200" r="80" fill="#EEF2FF"/>
  <path d="M300 140C322.091 140 340 157.909 340 180C340 202.091 322.091 220 300 220C277.909 220 260 202.091 260 180C260 157.909 277.909 140 300 140Z" fill="#6366F1" opacity="0.2"/>
  <path d="M290 160V200H310V160H290Z" fill="#6366F1"/>
  <path d="M270 180H330" stroke="#6366F1" stroke-width="4"/>
  <path d="M280 200H320" stroke="#6366F1" stroke-width="4"/>
  <path d="M290 220H310" stroke="#6366F1" stroke-width="4"/>
  
  <!-- Connected elements -->
  <!-- Data Analysis -->
  <rect x="100" y="100" width="120" height="80" rx="8" fill="white" stroke="#E5E7EB" stroke-width="1"/>
  <rect x="120" y="120" width="80" height="10" rx="2" fill="#1F2937"/>
  <rect x="120" y="140" width="60" height="6" rx="2" fill="#9CA3AF"/>
  <rect x="120" y="150" width="60" height="6" rx="2" fill="#9CA3AF"/>
  <line x1="220" y1="140" x2="260" y2="180" stroke="#6366F1" stroke-width="2" stroke-dasharray="4 4"/>
  
  <!-- Predictive Analytics -->
  <rect x="100" y="220" width="120" height="80" rx="8" fill="white" stroke="#E5E7EB" stroke-width="1"/>
  <rect x="120" y="240" width="80" height="10" rx="2" fill="#1F2937"/>
  <rect x="120" y="260" width="60" height="6" rx="2" fill="#9CA3AF"/>
  <rect x="120" y="270" width="60" height="6" rx="2" fill="#9CA3AF"/>
  <line x1="220" y1="260" x2="260" y2="220" stroke="#6366F1" stroke-width="2" stroke-dasharray="4 4"/>
  
  <!-- Natural Language Processing -->
  <rect x="380" y="100" width="120" height="80" rx="8" fill="white" stroke="#E5E7EB" stroke-width="1"/>
  <rect x="400" y="120" width="80" height="10" rx="2" fill="#1F2937"/>
  <rect x="400" y="140" width="60" height="6" rx="2" fill="#9CA3AF"/>
  <rect x="400" y="150" width="60" height="6" rx="2" fill="#9CA3AF"/>
  <line x1="380" y1="140" x2="340" y2="180" stroke="#6366F1" stroke-width="2" stroke-dasharray="4 4"/>
  
  <!-- Computer Vision -->
  <rect x="380" y="220" width="120" height="80" rx="8" fill="white" stroke="#E5E7EB" stroke-width="1"/>
  <rect x="400" y="240" width="80" height="10" rx="2" fill="#1F2937"/>
  <rect x="400" y="260" width="60" height="6" rx="2" fill="#9CA3AF"/>
  <rect x="400" y="270" width="60" height="6" rx="2" fill="#9CA3AF"/>
  <line x1="380" y1="260" x2="340" y2="220" stroke="#6366F1" stroke-width="2" stroke-dasharray="4 4"/>
  
  <!-- Small decorative elements -->
  <circle cx="100" cy="50" r="10" fill="#6366F1" opacity="0.1"/>
  <circle cx="500" cy="50" r="10" fill="#6366F1" opacity="0.1"/>
  <circle cx="100" cy="350" r="10" fill="#6366F1" opacity="0.1"/>
  <circle cx="500" cy="350" r="10" fill="#6366F1" opacity="0.1"/>
  
  <!-- Data points -->
  <circle cx="200" cy="50" r="3" fill="#6366F1"/>
  <circle cx="220" cy="70" r="3" fill="#6366F1"/>
  <circle cx="240" cy="40" r="3" fill="#6366F1"/>
  <circle cx="400" cy="50" r="3" fill="#6366F1"/>
  <circle cx="380" cy="70" r="3" fill="#6366F1"/>
  <circle cx="360" cy="40" r="3" fill="#6366F1"/>
  <circle cx="200" cy="350" r="3" fill="#6366F1"/>
  <circle cx="220" cy="330" r="3" fill="#6366F1"/>
  <circle cx="240" cy="360" r="3" fill="#6366F1"/>
  <circle cx="400" cy="350" r="3" fill="#6366F1"/>
  <circle cx="380" cy="330" r="3" fill="#6366F1"/>
  <circle cx="360" cy="360" r="3" fill="#6366F1"/>
</svg>