<svg width="800" height="600" viewBox="0 0 800 600" fill="none" xmlns="http://www.w3.org/2000/svg">
  <!-- Background -->
  <rect width="800" height="600" fill="#0F172A" />
  
  <!-- Grid Pattern -->
  <g opacity="0.05">
    <rect x="0" y="0" width="800" height="600" fill="url(#grid-pattern)" />
  </g>
  
  <!-- Glowing Orbs -->
  <circle cx="150" cy="150" r="80" fill="url(#blue-gradient)" opacity="0.2" filter="url(#blur-filter)" />
  <circle cx="650" cy="450" r="100" fill="url(#purple-gradient)" opacity="0.2" filter="url(#blur-filter)" />
  
  <!-- Main Device Frame -->
  <g transform="translate(400, 300)">
    <!-- Device Outline -->
    <rect x="-150" y="-200" width="300" height="400" rx="20" fill="#1E293B" stroke="#334155" stroke-width="2" />
    
    <!-- Screen -->
    <rect x="-140" y="-190" width="280" height="380" rx="12" fill="#0F172A" />
    
    <!-- Status Bar -->
    <rect x="-140" y="-190" width="280" height="30" rx="12" fill="#1E293B" />
    <circle cx="-120" cy="-175" r="4" fill="#38BDF8" />
    <rect x="-110" y="-178" width="30" height="6" rx="3" fill="#64748B" />
    <rect x="100" y="-178" width="20" height="6" rx="3" fill="#64748B" />
    <rect x="125" y="-178" width="10" height="6" rx="3" fill="#64748B" />
    
    <!-- App Interface -->
    <!-- Header -->
    <rect x="-140" y="-160" width="280" height="50" fill="#1E293B" />
    <rect x="-120" y="-145" width="100" height="20" rx="4" fill="#334155" />
    <circle cx="110" cy="-135" r="15" fill="#334155" />
    
    <!-- Content -->
    <!-- Card 1 -->
    <rect x="-120" y="-90" width="240" height="80" rx="8" fill="#1E293B" />
    <rect x="-110" y="-80" width="60" height="60" rx="4" fill="url(#blue-gradient)" opacity="0.8" />
    <rect x="-40" y="-80" width="150" height="12" rx="2" fill="#334155" />
    <rect x="-40" y="-60" width="120" height="8" rx="2" fill="#475569" />
    <rect x="-40" y="-45" width="140" height="8" rx="2" fill="#475569" />
    <rect x="-40" y="-30" width="80" height="8" rx="2" fill="#475569" />
    
    <!-- Card 2 -->
    <rect x="-120" y="10" width="240" height="80" rx="8" fill="#1E293B" />
    <rect x="-110" y="20" width="60" height="60" rx="4" fill="url(#purple-gradient)" opacity="0.8" />
    <rect x="-40" y="20" width="150" height="12" rx="2" fill="#334155" />
    <rect x="-40" y="40" width="120" height="8" rx="2" fill="#475569" />
    <rect x="-40" y="55" width="140" height="8" rx="2" fill="#475569" />
    <rect x="-40" y="70" width="80" height="8" rx="2" fill="#475569" />
    
    <!-- Card 3 -->
    <rect x="-120" y="110" width="240" height="80" rx="8" fill="#1E293B" />
    <rect x="-110" y="120" width="60" height="60" rx="4" fill="url(#green-gradient)" opacity="0.8" />
    <rect x="-40" y="120" width="150" height="12" rx="2" fill="#334155" />
    <rect x="-40" y="140" width="120" height="8" rx="2" fill="#475569" />
    <rect x="-40" y="155" width="140" height="8" rx="2" fill="#475569" />
    <rect x="-40" y="170" width="80" height="8" rx="2" fill="#475569" />
    
    <!-- Home Indicator -->
    <rect x="-30" y="170" width="60" height="5" rx="2.5" fill="#64748B" />
  </g>
  
  <!-- Floating Elements -->
  <!-- Data Points -->
  <g>
    <!-- Connected Lines -->
    <path d="M200 150 L300 200 L400 150 L500 200 L600 150" stroke="url(#line-gradient)" stroke-width="1.5" stroke-dasharray="5 3" opacity="0.6" />
    
    <!-- Data Points -->
    <circle cx="200" cy="150" r="4" fill="#38BDF8" />
    <circle cx="300" cy="200" r="4" fill="#38BDF8" />
    <circle cx="400" cy="150" r="4" fill="#38BDF8" />
    <circle cx="500" cy="200" r="4" fill="#38BDF8" />
    <circle cx="600" cy="150" r="4" fill="#38BDF8" />
  </g>
  
  <!-- Floating Icons -->
  <g>
    <!-- Icon 1: Chart -->
    <circle cx="200" cy="400" r="25" fill="#1E293B" />
    <rect x="190" y="390" width="5" height="20" rx="1" fill="#38BDF8" />
    <rect x="200" y="380" width="5" height="30" rx="1" fill="#A855F7" />
    <rect x="210" y="395" width="5" height="15" rx="1" fill="#38BDF8" />
    
    <!-- Icon 2: User -->
    <circle cx="600" cy="200" r="25" fill="#1E293B" />
    <circle cx="600" cy="190" r="8" fill="#A855F7" />
    <path d="M585 210 Q600 225 615 210" stroke="#A855F7" stroke-width="2" fill="none" />
    
    <!-- Icon 3: Notification -->
    <circle cx="700" cy="300" r="25" fill="#1E293B" />
    <path d="M700 285 L700 305 M690 295 L710 295" stroke="#38BDF8" stroke-width="3" />
  </g>
  
  <!-- Animated Particles -->
  <g>
    <circle cx="250" cy="150" r="2" fill="#FFFFFF">
      <animate attributeName="opacity" values="0.2;0.8;0.2" dur="3s" repeatCount="indefinite" />
    </circle>
    <circle cx="350" cy="200" r="2" fill="#FFFFFF">
      <animate attributeName="opacity" values="0.2;0.8;0.2" dur="4s" repeatCount="indefinite" />
    </circle>
    <circle cx="450" cy="150" r="2" fill="#FFFFFF">
      <animate attributeName="opacity" values="0.2;0.8;0.2" dur="5s" repeatCount="indefinite" />
    </circle>
    <circle cx="550" cy="200" r="2" fill="#FFFFFF">
      <animate attributeName="opacity" values="0.2;0.8;0.2" dur="3.5s" repeatCount="indefinite" />
    </circle>
    <circle cx="300" cy="250" r="2" fill="#FFFFFF">
      <animate attributeName="opacity" values="0.2;0.8;0.2" dur="4.5s" repeatCount="indefinite" />
    </circle>
    <circle cx="500" cy="250" r="2" fill="#FFFFFF">
      <animate attributeName="opacity" values="0.2;0.8;0.2" dur="3.2s" repeatCount="indefinite" />
    </circle>
  </g>
  
  <!-- Definitions -->
  <defs>
    <!-- Grid Pattern -->
    <pattern id="grid-pattern" x="0" y="0" width="40" height="40" patternUnits="userSpaceOnUse">
      <rect width="40" height="40" fill="none" />
      <path d="M 40 0 L 0 0 0 40" stroke="#FFFFFF" stroke-width="0.5" fill="none" />
    </pattern>
    
    <!-- Gradients -->
    <linearGradient id="blue-gradient" x1="0%" y1="0%" x2="100%" y2="100%">
      <stop offset="0%" stop-color="#0EA5E9" />
      <stop offset="100%" stop-color="#2563EB" />
    </linearGradient>
    
    <linearGradient id="purple-gradient" x1="0%" y1="0%" x2="100%" y2="100%">
      <stop offset="0%" stop-color="#8B5CF6" />
      <stop offset="100%" stop-color="#D946EF" />
    </linearGradient>
    
    <linearGradient id="green-gradient" x1="0%" y1="0%" x2="100%" y2="100%">
      <stop offset="0%" stop-color="#10B981" />
      <stop offset="100%" stop-color="#059669" />
    </linearGradient>
    
    <linearGradient id="line-gradient" x1="0%" y1="0%" x2="100%" y2="0%">
      <stop offset="0%" stop-color="#38BDF8" />
      <stop offset="100%" stop-color="#A855F7" />
    </linearGradient>
    
    <!-- Filters -->
    <filter id="blur-filter" x="-50%" y="-50%" width="200%" height="200%">
      <feGaussianBlur in="SourceGraphic" stdDeviation="30" />
    </filter>
  </defs>
</svg>