<svg width="320" height="650" viewBox="0 0 320 650" fill="none" xmlns="http://www.w3.org/2000/svg">
  <!-- Phone frame -->
  <rect x="10" y="10" width="300" height="630" rx="30" fill="#111827" stroke="#4B5563" stroke-width="2"/>
  <rect x="20" y="20" width="280" height="610" rx="24" fill="#1F2937"/>
  
  <!-- Screen content -->
  <rect x="30" y="40" width="260" height="570" rx="16" fill="#F9FAFB"/>
  
  <!-- Status bar -->
  <rect x="30" y="40" width="260" height="30" rx="8" fill="#6366F1"/>
  <circle cx="50" cy="55" r="5" fill="white"/>
  <rect x="60" y="52" width="40" height="6" rx="3" fill="white"/>
  <rect x="230" y="52" width="20" height="6" rx="3" fill="white"/>
  <rect x="255" y="52" width="15" height="6" rx="3" fill="white"/>
  
  <!-- App header -->
  <rect x="30" y="70" width="260" height="50" rx="0" fill="white"/>
  <rect x="50" y="85" width="120" height="20" rx="4" fill="#6366F1"/>
  <circle cx="260" cy="95" r="15" fill="#F3F4F6"/>
  
  <!-- Main content -->
  <!-- Hero section -->
  <rect x="40" y="130" width="240" height="120" rx="8" fill="#EEF2FF"/>
  <rect x="55" y="145" width="150" height="12" rx="2" fill="#6366F1"/>
  <rect x="55" y="165" width="210" height="8" rx="2" fill="#A5B4FC"/>
  <rect x="55" y="180" width="210" height="8" rx="2" fill="#A5B4FC"/>
  <rect x="55" y="195" width="210" height="8" rx="2" fill="#A5B4FC"/>
  <rect x="55" y="220" width="80" height="20" rx="4" fill="#6366F1"/>
  
  <!-- Feature cards -->
  <rect x="40" y="260" width="240" height="80" rx="8" fill="white" stroke="#E5E7EB" stroke-width="1"/>
  <circle cx="60" cy="280" r="10" fill="#6366F1"/>
  <rect x="80" y="275" width="100" height="10" rx="2" fill="#1F2937"/>
  <rect x="80" y="290" width="180" height="6" rx="2" fill="#9CA3AF"/>
  <rect x="80" y="300" width="180" height="6" rx="2" fill="#9CA3AF"/>
  <rect x="80" y="310" width="180" height="6" rx="2" fill="#9CA3AF"/>
  <rect x="80" y="320" width="60" height="8" rx="2" fill="#6366F1"/>
  
  <rect x="40" y="350" width="240" height="80" rx="8" fill="white" stroke="#E5E7EB" stroke-width="1"/>
  <circle cx="60" cy="370" r="10" fill="#F59E0B"/>
  <rect x="80" y="365" width="100" height="10" rx="2" fill="#1F2937"/>
  <rect x="80" y="380" width="180" height="6" rx="2" fill="#9CA3AF"/>
  <rect x="80" y="390" width="180" height="6" rx="2" fill="#9CA3AF"/>
  <rect x="80" y="400" width="180" height="6" rx="2" fill="#9CA3AF"/>
  <rect x="80" y="410" width="60" height="8" rx="2" fill="#6366F1"/>
  
  <rect x="40" y="440" width="240" height="80" rx="8" fill="white" stroke="#E5E7EB" stroke-width="1"/>
  <circle cx="60" cy="460" r="10" fill="#10B981"/>
  <rect x="80" y="455" width="100" height="10" rx="2" fill="#1F2937"/>
  <rect x="80" y="470" width="180" height="6" rx="2" fill="#9CA3AF"/>
  <rect x="80" y="480" width="180" height="6" rx="2" fill="#9CA3AF"/>
  <rect x="80" y="490" width="180" height="6" rx="2" fill="#9CA3AF"/>
  <rect x="80" y="500" width="60" height="8" rx="2" fill="#6366F1"/>
  
  <!-- Bottom navigation -->
  <rect x="30" y="560" width="260" height="50" rx="0" fill="white"/>
  <circle cx="70" cy="585" r="10" fill="#6366F1"/>
  <circle cx="160" cy="585" r="10" fill="#D1D5DB"/>
  <circle cx="250" cy="585" r="10" fill="#D1D5DB"/>
  
  <!-- Phone elements -->
  <rect x="130" y="600" width="60" height="5" rx="2.5" fill="#4B5563"/>
  <circle cx="160" cy="30" r="5" fill="#4B5563"/>
</svg>