<svg width="600" height="400" viewBox="0 0 600 400" fill="none" xmlns="http://www.w3.org/2000/svg">
  <!-- Background elements -->
  <rect width="600" height="400" fill="#F9FAFB"/>
  <path d="M0 0L600 400H0V0Z" fill="#EEF2FF" opacity="0.5"/>
  <path d="M600 0L0 400H600V0Z" fill="#EEF2FF" opacity="0.5"/>
  
  <!-- Decorative circles -->
  <circle cx="50" cy="50" r="30" fill="#6366F1" opacity="0.1"/>
  <circle cx="550" cy="350" r="30" fill="#6366F1" opacity="0.1"/>
  <circle cx="300" cy="200" r="100" fill="#6366F1" opacity="0.05"/>
  
  <!-- Testimonial cards -->
  <!-- Card 1 -->
  <rect x="100" y="100" width="180" height="200" rx="10" fill="white" stroke="#E5E7EB" stroke-width="1"/>
  <circle cx="140" cy="140" r="25" fill="#6366F1" opacity="0.2"/>
  <rect x="120" y="180" width="140" height="10" rx="2" fill="#1F2937"/>
  <rect x="120" y="200" width="140" height="6" rx="2" fill="#9CA3AF"/>
  <rect x="120" y="210" width="140" height="6" rx="2" fill="#9CA3AF"/>
  <rect x="120" y="220" width="140" height="6" rx="2" fill="#9CA3AF"/>
  <rect x="120" y="240" width="80" height="6" rx="2" fill="#6366F1"/>
  <rect x="120" y="250" width="60" height="6" rx="2" fill="#9CA3AF"/>
  
  <!-- Card 2 -->
  <rect x="320" y="80" width="180" height="200" rx="10" fill="white" stroke="#E5E7EB" stroke-width="1"/>
  <circle cx="360" cy="120" r="25" fill="#F59E0B" opacity="0.2"/>
  <rect x="340" y="160" width="140" height="10" rx="2" fill="#1F2937"/>
  <rect x="340" y="180" width="140" height="6" rx="2" fill="#9CA3AF"/>
  <rect x="340" y="190" width="140" height="6" rx="2" fill="#9CA3AF"/>
  <rect x="340" y="200" width="140" height="6" rx="2" fill="#9CA3AF"/>
  <rect x="340" y="220" width="80" height="6" rx="2" fill="#F59E0B"/>
  <rect x="340" y="230" width="60" height="6" rx="2" fill="#9CA3AF"/>
  
  <!-- Card 3 -->
  <rect x="210" y="180" width="180" height="200" rx="10" fill="white" stroke="#E5E7EB" stroke-width="1"/>
  <circle cx="250" cy="220" r="25" fill="#10B981" opacity="0.2"/>
  <rect x="230" y="260" width="140" height="10" rx="2" fill="#1F2937"/>
  <rect x="230" y="280" width="140" height="6" rx="2" fill="#9CA3AF"/>
  <rect x="230" y="290" width="140" height="6" rx="2" fill="#9CA3AF"/>
  <rect x="230" y="300" width="140" height="6" rx="2" fill="#9CA3AF"/>
  <rect x="230" y="320" width="80" height="6" rx="2" fill="#10B981"/>
  <rect x="230" y="330" width="60" height="6" rx="2" fill="#9CA3AF"/>
  
  <!-- Stats elements -->
  <rect x="50" y="320" width="100" height="60" rx="8" fill="white" stroke="#E5E7EB" stroke-width="1"/>
  <rect x="70" y="335" width="60" height="15" rx="2" fill="#6366F1"/>
  <rect x="70" y="355" width="40" height="8" rx="2" fill="#9CA3AF"/>
  
  <rect x="450" y="320" width="100" height="60" rx="8" fill="white" stroke="#E5E7EB" stroke-width="1"/>
  <rect x="470" y="335" width="60" height="15" rx="2" fill="#10B981"/>
  <rect x="470" y="355" width="40" height="8" rx="2" fill="#9CA3AF"/>
</svg>