<svg width="800" height="500" viewBox="0 0 800 500" fill="none" xmlns="http://www.w3.org/2000/svg">
  <!-- Laptop frame -->
  <rect x="50" y="30" width="700" height="400" rx="10" fill="#111827" stroke="#4B5563" stroke-width="2"/>
  <rect x="60" y="40" width="680" height="380" rx="5" fill="#1F2937"/>
  
  <!-- Screen content -->
  <rect x="70" y="50" width="660" height="360" rx="3" fill="#F9FAFB"/>
  
  <!-- Header -->
  <rect x="70" y="50" width="660" height="60" rx="0" fill="white" stroke="#E5E7EB" stroke-width="1"/>
  <rect x="100" y="70" width="120" height="20" rx="4" fill="#6366F1"/>
  <rect x="400" y="70" width="60" height="20" rx="4" fill="#F3F4F6"/>
  <rect x="480" y="70" width="60" height="20" rx="4" fill="#F3F4F6"/>
  <rect x="560" y="70" width="60" height="20" rx="4" fill="#F3F4F6"/>
  <rect x="640" y="70" width="60" height="20" rx="4" fill="#6366F1"/>
  
  <!-- Hero section -->
  <rect x="70" y="110" width="660" height="200" rx="0" fill="#EEF2FF"/>
  
  <!-- Left content -->
  <rect x="120" y="150" width="250" height="25" rx="4" fill="#6366F1"/>
  <rect x="120" y="185" width="300" height="10" rx="2" fill="#A5B4FC"/>
  <rect x="120" y="205" width="300" height="10" rx="2" fill="#A5B4FC"/>
  <rect x="120" y="225" width="300" height="10" rx="2" fill="#A5B4FC"/>
  <rect x="120" y="255" width="120" height="30" rx="6" fill="#6366F1"/>
  <rect x="250" y="255" width="100" height="30" rx="6" fill="white" stroke="#6366F1" stroke-width="2"/>
  
  <!-- Right content (device mockup) -->
  <rect x="480" y="130" width="200" height="160" rx="8" fill="white" stroke="#E5E7EB" stroke-width="2"/>
  <rect x="490" y="140" width="180" height="120" rx="4" fill="#6366F1" opacity="0.1"/>
  <rect x="510" y="160" width="140" height="10" rx="2" fill="#6366F1"/>
  <rect x="510" y="180" width="140" height="6" rx="2" fill="#A5B4FC"/>
  <rect x="510" y="190" width="140" height="6" rx="2" fill="#A5B4FC"/>
  <rect x="510" y="210" width="60" height="20" rx="4" fill="#6366F1"/>
  <rect x="490" y="270" width="180" height="10" rx="5" fill="#E5E7EB"/>
  
  <!-- Feature section -->
  <rect x="70" y="310" width="660" height="100" rx="0" fill="white"/>
  
  <!-- Feature cards -->
  <rect x="100" y="330" width="200" height="60" rx="8" fill="white" stroke="#E5E7EB" stroke-width="1"/>
  <circle cx="120" cy="350" r="10" fill="#6366F1"/>
  <rect x="140" y="345" width="100" height="10" rx="2" fill="#1F2937"/>
  <rect x="140" y="365" width="140" height="6" rx="2" fill="#9CA3AF"/>
  <rect x="140" y="375" width="140" height="6" rx="2" fill="#9CA3AF"/>
  
  <rect x="320" y="330" width="200" height="60" rx="8" fill="white" stroke="#E5E7EB" stroke-width="1"/>
  <circle cx="340" cy="350" r="10" fill="#F59E0B"/>
  <rect x="360" y="345" width="100" height="10" rx="2" fill="#1F2937"/>
  <rect x="360" y="365" width="140" height="6" rx="2" fill="#9CA3AF"/>
  <rect x="360" y="375" width="140" height="6" rx="2" fill="#9CA3AF"/>
  
  <rect x="540" y="330" width="200" height="60" rx="8" fill="white" stroke="#E5E7EB" stroke-width="1"/>
  <circle cx="560" cy="350" r="10" fill="#10B981"/>
  <rect x="580" y="345" width="100" height="10" rx="2" fill="#1F2937"/>
  <rect x="580" y="365" width="140" height="6" rx="2" fill="#9CA3AF"/>
  <rect x="580" y="375" width="140" height="6" rx="2" fill="#9CA3AF"/>
  
  <!-- Laptop base -->
  <path d="M50 430C50 430 100 450 400 450C700 450 750 430 750 430L750 440C750 440 700 470 400 470C100 470 50 440 50 440L50 430Z" fill="#111827"/>
</svg>